# xmcd
#
# Track frame offsets: 
#        150
#        24817
#        56965
#        90731
#        126888
#        154385
#        205357
#        218675
#        234741
#        261084
#        282360
#        291142
#        305797
#
# Disc length: 4479 seconds
#
# Revision: 0
# Processed by: cddbd v1.5.2PL0 Copyright (c) Steve Scherf et al.
# Submitted via: ExactAudioCopy v0.99pb4
#
DISCID=c7117d0d
DTITLE=Catarina Ligenza - Schwedische Aufnahmen 1963-1976
DYEAR=2007
DGENRE=Acid Jazz
TTITLE0=George Friedrich Handel-Neun deutche Arien-Flammende Rose
TTITLE1=Wolgang Amadeus Mozart-Konzertarie-Misera dove son!-Ah! non so
TTITLE1=n io che parlo
TTITLE2=L.v.Beethoven-Arie Der Leonore (Abscheulicher, wo eilst du hin
TTITLE3=R.Wagner-Der fliegende Hollander-Ballade der Senta (Traft ihr 
TTITLE3=das Schiff)
TTITLE4=R.Wagner-Lohengrin-Szene der Elsa (Einsam in truben Tagen
TTITLE5=G.Verdi-Otello-Szene der Desdemona (Piangea cantando_Ave Maria
TTITLE5=)
TTITLE6=Giacomo Puccini-Turandot-Arien der Liu
TTITLE7=Giacomo Puccini-Turandot-Arien der Liu
TTITLE8=Antonin Dvorak-Rusalka-Rusalka lied an den mond
TTITLE9=Alexander Borodin-First Igor-Arie der Jaroslavna (Ach, bittrer
TTITLE9=Schmerz
TTITLE10=Wilhelm Peterson-Berger-Arnljot-Lider der Vaino
TTITLE11=Wilhelm Peterson-Berger-Arnljot-Lider der Vaino
TTITLE12=R.Wagner-Tristan und Isolde-Isoldes lieebstod (Mild und leise
TTITLE12=)
EXTD=
EXTT0=
EXTT1=
EXTT2=
EXTT3=
EXTT4=
EXTT5=
EXTT6=
EXTT7=
EXTT8=
EXTT9=
EXTT10=
EXTT11=
EXTT12=
PLAYORDER=
